# xmcd
#
# Track frame offsets:
#	150
#	14060
#	28075
#	43298
#	57005
#	72505
#
# Disc length: 1147 seconds
#
# Revision: 1
# Processed by: cddbd v1.5.2PL0 Copyright (c) Steve Scherf et al.
# Submitted via: audiograbber 1.83.01
#
DISCID=55047906
DTITLE=Tara Finnerty - Why You Been Gone So Long
DYEAR=1994
DGENRE=
TTITLE0=Why You Been Gone So Long
TTITLE1=I Just Might
TTITLE2=Isnt That What You Told Her
TTITLE3=Hearts Breaking All Over Town
TTITLE4=Who Needs Love
TTITLE5=This, That And The Other Thing
EXTD=
EXTT0=
EXTT1=
EXTT2=
EXTT3=
EXTT4=
EXTT5=
PLAYORDER=
